<?xml version="1.0" encoding="UTF-8"?><svg xmlns="http://www.w3.org/2000/svg" xmlns:xlink="http://www.w3.org/1999/xlink"
  viewBox="0 0 40.48 44.82">
  <defs>
    <style>
      .g {
        fill: #fff;
      }

      .h {
        fill: #271100;
      }

      .i {
        fill: url(#f);
        stroke: #623b00;
        stroke-miterlimit: 10;
      }
    </style>
    <radialGradient id="f" cx="20.24" cy="22.41" fx="20.24" fy="36.37" r="37.25"
      gradientTransform="matrix(1, 0, 0, 1, 0, 0)" gradientUnits="userSpaceOnUse">
      <stop offset=".02" stop-color="#e0af00" />
      <stop offset=".17" stop-color="#e0af00" />
      <stop offset=".52" stop-color="#633b0a" />
      <stop offset=".77" stop-color="#5b3102" />
    </radialGradient>
  </defs>
  <g id="a" />
  <g id="b">
    <g id="c">
      <g id="d">
        <g id="e">
          <path class="i"
            d="M20.24,.5C9.34,.5,.5,10.31,.5,22.41s8.84,21.91,19.74,21.91,19.74-9.81,19.74-21.91S31.15,.5,20.24,.5Zm-.59,37.88c-7.55,0-13.67-6.65-13.67-14.85,0-2.05,.38-4.01,1.08-5.79-.43-.16-.84-.39-1.2-.7-2.08-1.79-1.88-5.45,.46-8.17s5.92-3.47,8-1.68c.65,.56,1.05,1.31,1.26,2.15,1.29-.43,2.65-.67,4.07-.67,7.55,0,13.67,6.65,13.67,14.85s-6.12,14.85-13.67,14.85Z" />
          <path class="h"
            d="M19.65,8.68c-1.42,0-2.79,.23-4.07,.67,.46,1.84-.11,4.15-1.72,6.02-1.93,2.25-4.72,3.15-6.81,2.38-.69,1.78-1.08,3.73-1.08,5.79,0,8.2,6.12,14.85,13.67,14.85s13.67-6.65,13.67-14.85-6.12-14.85-13.67-14.85Z" />
          <path class="g"
            d="M15.58,9.35c-.21-.84-.61-1.59-1.26-2.15-2.08-1.79-5.67-1.04-8,1.68s-2.54,6.38-.46,8.17c.36,.31,.76,.54,1.2,.7,1.56-3.99,4.68-7.09,8.53-8.39Z" />
          <path class="g"
            d="M13.86,15.37c1.61-1.87,2.18-4.17,1.72-6.02-3.85,1.3-6.97,4.4-8.53,8.39,2.09,.77,4.87-.12,6.81-2.38Z" />
        </g>
      </g>
    </g>
  </g>
</svg>